<?xml version="1.0" encoding="iso-8859-1"?><!-- Generator: Adobe Illustrator 19.0.0, SVG Export Plug-In . SVG Version: 6.00 Build 0)  --><svg version="1.1" id="Layer_1" xmlns="http://www.w3.org/2000/svg" xmlns:xlink="http://www.w3.org/1999/xlink" x="0px" y="0px" viewBox="0 0 512 512" style="enable-background:new 0 0 512 512;" xml:space="preserve"><g><g><path d="M151.624,301.605h-0.015c-8.145,0-14.743,6.604-14.743,14.751c0,8.147,6.611,14.751,14.758,14.751
			c8.147,0,14.751-6.604,14.751-14.751C166.375,308.209,159.771,301.605,151.624,301.605z"/></g></g><g><g><path d="M472.272,319.226c5.409-19.301,8.212-39.463,8.212-60.057c0-59.102-23.017-114.666-64.808-156.456
			c-57.673-57.671-139.519-76.778-213.22-57.344C118.789-4.016,52.169-13.579,19.321,19.27C2.81,35.78-11.568,69.672,13.692,137.381
			c7.607,20.392,18.359,42.322,31.738,64.985c-19.452,73.711-0.348,155.579,57.334,213.26
			c43.136,43.134,99.795,64.702,156.456,64.702c20.156,0,40.308-2.744,59.854-8.203c11.835,6.654,23.486,12.588,34.862,17.717
			c32.685,14.74,61.681,22.123,85.727,22.123c22.347,0,40.42-6.378,53.197-19.155C524.292,461.38,516.723,398.309,472.272,319.226z
			 M41.332,127.069c-15.211-40.771-15.63-72.459-1.151-86.937c19.25-19.248,67.071-11.768,125.468,18.526
			c-22.78,10.603-44.114,25.286-62.886,44.056c-18.773,18.773-33.458,40.11-44.061,62.895
			C51.75,152.26,45.912,139.344,41.332,127.069z M322.647,440.126c-43.577-25.953-89.595-62.048-133.255-104.824
			c-5.821-5.703-15.158-5.604-20.859,0.214c-5.701,5.819-5.607,15.158,0.214,20.861c36.952,36.204,75.687,67.876,113.505,93.091
			c-7.648,0.916-15.339,1.375-23.032,1.373c-49.1-0.004-98.217-18.697-135.596-56.075C81.019,352.159,62.706,294.33,68.656,238.626
			c13.229,19.179,28.069,38.573,44.257,57.733c2.918,3.453,7.082,5.231,11.276,5.231c3.362,0,6.743-1.143,9.511-3.483
			c6.223-5.257,7.007-14.565,1.749-20.787c-22.334-26.436-41.941-53.214-58.03-79.048c9.103-27.321,24.495-52.988,46.206-74.698
			c37.385-37.385,86.49-56.075,135.596-56.075s98.211,18.691,135.596,56.075c36.219,36.219,56.167,84.373,56.167,135.596
			c0,19.396-2.866,38.351-8.387,56.385c-0.249,0.633-0.454,1.282-0.615,1.943c-9.168,28.835-25.156,55.258-47.166,77.268
			C373.773,415.807,349.021,430.928,322.647,440.126z M472,471.951c-16.981,16.983-55.593,13.704-105.936-9
			c-3.354-1.513-6.738-3.104-10.144-4.765c21.603-10.473,41.848-24.652,59.757-42.559c17.672-17.672,31.971-37.814,42.608-59.638
			C484.851,410.416,490.337,453.614,472,471.951z"/></g></g><g></g><g></g><g></g><g></g><g></g><g></g><g></g><g></g><g></g><g></g><g></g><g></g><g></g><g></g><g></g></svg>
